<?xml version="1.0" encoding="UTF-8"?>
<svg version="1.1" viewBox="0 0 1000 1199" xmlns="http://www.w3.org/2000/svg">
<g transform="translate(-1.0458 .48543)">
<svg width="1e3" height="1199" data-background-color="#ffffff" viewBox="0 0 206 247" xmlns="http://www.w3.org/2000/svg" xmlns:xlink="http://www.w3.org/1999/xlink">
<g transform="translate(.21543 -.1)">
<svg width="205.57" height="247.2" viewBox="0 0 205.56913366336636 247.2">
<svg width="205.57" height="247.2" viewBox="0 0 205.5691336633664 247.20000000000002">
<svg width="205.57" height="247.2" viewBox="0 0 205.5691336633664 247.20000000000002">
<svg width="205.57" height="247.2" viewBox="0 0 205.5691336633664 247.20000000000002">
<svg width="205.57" height="247.2" viewBox="0 0 205.5691336633664 247.20000000000002">
<g>
<svg width="205.57" height="247.2" data-palette-color="#e8772e" viewBox="0.34375 -39.95000076293945 33.596248626708984 40.400001525878906">
<path class="undefined-text-0" d="m28.15-1.2-11-33.6-10.95 33.6v-0.05q-0.3 0.75-0.82 1.22-0.53 0.48-1.28 0.48-0.4 0-0.77-0.07-0.38-0.08-0.78-0.18h0.05q-2.85-0.9-2.1-3.2l11.4-34.65q0.25-0.8 0.88-1.35 0.62-0.55 1.47-0.65 0.85-0.15 1.65-0.23 0.8-0.07 1.25-0.07t1.25 0.07q0.8 0.08 1.65 0.18 0.7 0.1 1.38 0.75 0.67 0.65 1.02 1.3 2.8 8.6 5.68 17.32 2.87 8.73 5.67 17.33 0.7 2.3-2.1 3.2-0.4 0.1-0.72 0.18-0.33 0.07-0.73 0.07-0.7 0-1.27-0.48-0.58-0.47-0.83-1.22v0.05zm-7.25-10.8q0 1.6-1.12 2.72-1.13 1.13-2.73 1.13t-2.7-1.13q-1.1-1.12-1.1-2.72t1.1-2.73q1.1-1.12 2.7-1.12t2.73 1.12q1.12 1.13 1.12 2.73z" fill="#e8772e" data-fill-palette-color="primary"/>
</svg>
</g>
</svg>
</svg>
</svg>
</svg>
</svg>
<rect width="205.57" height="247.2" fill="none" visibility="hidden"/>
</g>
</svg>
</g>
</svg>
